# MagicaVoxel @ Ephtracy

# group
o 

# material
mtllib shor-floor.mtl
usemtl palette

# normals
vn -1 0 0
vn 1 0 0
vn 0 0 1
vn 0 0 -1
vn 0 -1 0
vn 0 1 0

# texcoords
vt 0.974609 0.5
vt 0.982422 0.5
vt 0.990234 0.5

# verts
v -3 0 3
v -3 0 -3
v -3 0.1 3
v -3 0.1 -3
v -3 1.8 3
v -3 1.8 -3
v -3 2 3
v -3 2 -3
v 3 0 3
v 3 0 -3
v 3 0.1 3
v 3 0.1 -3
v 3 1.8 3
v 3 1.8 -3
v 3 2 3
v 3 2 -3
v -3 0 3
v -3 0.1 3
v -3 1.8 3
v -3 2 3
v 3 0 3
v 3 0.1 3
v 3 1.8 3
v 3 2 3
v -3 0 -3
v -3 0.1 -3
v -3 1.8 -3
v -3 2 -3
v 3 0 -3
v 3 0.1 -3
v 3 1.8 -3
v 3 2 -3
v -3 0 3
v 3 0 3
v -3 0 -3
v 3 0 -3
v -3 2 3
v 3 2 3
v -2.9 2 2.9
v -1.1 2 2.9
v -0.9 2 2.9
v 0.9 2 2.9
v 1.1 2 2.9
v 2.9 2 2.9
v -2.9 2 1.1
v -1.1 2 1.1
v -0.9 2 1.1
v 0.9 2 1.1
v 1.1 2 1.1
v 2.9 2 1.1
v -2.9 2 0.9
v -1.1 2 0.9
v -0.9 2 0.9
v 0.9 2 0.9
v 1.1 2 0.9
v 2.9 2 0.9
v -2.9 2 -0.9
v -1.1 2 -0.9
v -0.9 2 -0.9
v 0.9 2 -0.9
v 1.1 2 -0.9
v 2.9 2 -0.9
v -2.9 2 -1.1
v -1.1 2 -1.1
v -0.9 2 -1.1
v 0.9 2 -1.1
v 1.1 2 -1.1
v 2.9 2 -1.1
v -2.9 2 -2.9
v -1.1 2 -2.9
v -0.9 2 -2.9
v 0.9 2 -2.9
v 1.1 2 -2.9
v 2.9 2 -2.9
v -3 2 -3
v 3 2 -3

# faces
f 3/3/1 2/3/1 1/3/1
f 4/3/1 2/3/1 3/3/1
f 5/2/1 4/2/1 3/2/1
f 6/2/1 4/2/1 5/2/1
f 7/3/1 6/3/1 5/3/1
f 8/3/1 6/3/1 7/3/1
f 9/3/2 10/3/2 11/3/2
f 11/3/2 10/3/2 12/3/2
f 11/2/2 12/2/2 13/2/2
f 13/2/2 12/2/2 14/2/2
f 13/3/2 14/3/2 15/3/2
f 15/3/2 14/3/2 16/3/2
f 21/3/3 18/3/3 17/3/3
f 22/2/3 19/2/3 18/2/3
f 22/3/3 18/3/3 21/3/3
f 23/3/3 20/3/3 19/3/3
f 23/2/3 19/2/3 22/2/3
f 24/3/3 20/3/3 23/3/3
f 25/3/4 26/3/4 29/3/4
f 26/2/4 27/2/4 30/2/4
f 29/3/4 26/3/4 30/3/4
f 27/3/4 28/3/4 31/3/4
f 30/2/4 27/2/4 31/2/4
f 31/3/4 28/3/4 32/3/4
f 35/3/5 34/3/5 33/3/5
f 36/3/5 34/3/5 35/3/5
f 37/3/6 38/3/6 39/3/6
f 39/3/6 38/3/6 40/3/6
f 40/3/6 38/3/6 41/3/6
f 41/3/6 38/3/6 42/3/6
f 42/3/6 38/3/6 43/3/6
f 43/3/6 38/3/6 44/3/6
f 37/3/6 39/3/6 45/3/6
f 39/1/6 40/1/6 45/1/6
f 40/3/6 41/3/6 46/3/6
f 45/1/6 40/1/6 46/1/6
f 41/1/6 42/1/6 47/1/6
f 46/3/6 41/3/6 47/3/6
f 42/3/6 43/3/6 48/3/6
f 47/1/6 42/1/6 48/1/6
f 43/1/6 44/1/6 49/1/6
f 48/3/6 43/3/6 49/3/6
f 44/3/6 38/3/6 50/3/6
f 49/1/6 44/1/6 50/1/6
f 48/3/6 49/3/6 51/3/6
f 47/3/6 48/3/6 51/3/6
f 49/3/6 50/3/6 51/3/6
f 46/3/6 47/3/6 51/3/6
f 45/3/6 46/3/6 51/3/6
f 37/3/6 45/3/6 51/3/6
f 51/3/6 50/3/6 52/3/6
f 52/3/6 50/3/6 53/3/6
f 53/3/6 50/3/6 54/3/6
f 54/3/6 50/3/6 55/3/6
f 50/3/6 38/3/6 56/3/6
f 55/3/6 50/3/6 56/3/6
f 37/3/6 51/3/6 57/3/6
f 51/1/6 52/1/6 57/1/6
f 52/3/6 53/3/6 58/3/6
f 57/1/6 52/1/6 58/1/6
f 53/1/6 54/1/6 59/1/6
f 58/3/6 53/3/6 59/3/6
f 54/3/6 55/3/6 60/3/6
f 59/1/6 54/1/6 60/1/6
f 55/1/6 56/1/6 61/1/6
f 60/3/6 55/3/6 61/3/6
f 56/3/6 38/3/6 62/3/6
f 61/1/6 56/1/6 62/1/6
f 58/3/6 59/3/6 63/3/6
f 60/3/6 61/3/6 63/3/6
f 61/3/6 62/3/6 63/3/6
f 57/3/6 58/3/6 63/3/6
f 37/3/6 57/3/6 63/3/6
f 59/3/6 60/3/6 63/3/6
f 63/3/6 62/3/6 64/3/6
f 64/3/6 62/3/6 65/3/6
f 65/3/6 62/3/6 66/3/6
f 66/3/6 62/3/6 67/3/6
f 62/3/6 38/3/6 68/3/6
f 67/3/6 62/3/6 68/3/6
f 37/3/6 63/3/6 69/3/6
f 63/1/6 64/1/6 69/1/6
f 64/3/6 65/3/6 70/3/6
f 69/1/6 64/1/6 70/1/6
f 65/1/6 66/1/6 71/1/6
f 70/3/6 65/3/6 71/3/6
f 66/3/6 67/3/6 72/3/6
f 71/1/6 66/1/6 72/1/6
f 67/1/6 68/1/6 73/1/6
f 72/3/6 67/3/6 73/3/6
f 68/3/6 38/3/6 74/3/6
f 73/1/6 68/1/6 74/1/6
f 70/3/6 71/3/6 75/3/6
f 72/3/6 73/3/6 75/3/6
f 73/3/6 74/3/6 75/3/6
f 69/3/6 70/3/6 75/3/6
f 37/3/6 69/3/6 75/3/6
f 71/3/6 72/3/6 75/3/6
f 74/3/6 38/3/6 76/3/6
f 75/3/6 74/3/6 76/3/6
